<svg xmlns="http://www.w3.org/2000/svg" xmlns:xlink="http://www.w3.org/1999/xlink" id="Ebene_1" data-name="Ebene 1" viewBox="0 0 110.205 33.008"><defs><clipPath id="clippath"><rect width="110.205" height="33.008" style="fill: none;"></rect></clipPath><clipPath id="clippath-1"><rect width="110.205" height="33.008" style="fill: none;"></rect></clipPath></defs><g style="clip-path: url(#clippath);"><path d="m72.9992,24.6281v8.38h-8.38v-4.944c0-1.898,1.538-3.436,3.436-3.436h4.944Z" style="fill: #fff;"></path><path d="m85.2787.0691v8.38h-8.38V3.5051c0-1.898,1.538-3.436,3.436-3.436h4.944Z" style="fill: #fff;"></path></g><rect x="76.899" y="12.349" width="8.38" height="8.38" style="fill: #fff;"></rect><rect x="89.178" y="12.307" width="8.38" height="8.38" style="fill: #fff;"></rect><g style="clip-path: url(#clippath-1);"><path d="m109.8377,12.3071v4.944c0,1.898-1.538,3.436-3.436,3.436h-4.944v-8.38h8.38Z" style="fill: #fff;"></path><path d="m85.2787,24.6281v4.944c0,1.898-1.538,3.436-3.436,3.436h-4.944v-8.38h8.38Z" style="fill: #fff;"></path><path d="m105.5466,4.6944V.8524h2.369c.913,0,1.369.629,1.369,1.886,0,1.304-.483,1.956-1.449,1.956h-2.289Zm-.921,3.796h.921v-3.094c.337.023.766.048,1.288.074.521.027.893.041,1.116.041.621,0,1.152-.2,1.593-.599.441-.398.662-1.127.662-2.185,0-1.802-.737-2.703-2.209-2.703h-3.371v8.466Zm-6.932-4.21V.8524h2.278c.444,0,.793.117,1.046.351.253.234.38.673.38,1.317,0,.682-.125,1.146-.374,1.392-.249.245-.6.368-1.052.368h-2.278Zm-.92,4.21h.92v-3.509l1.53.035.633.012,1.645,3.462h.931l-1.737-3.589c.46-.092.844-.307,1.151-.644.306-.338.46-.917.46-1.737,0-.959-.202-1.614-.604-1.967-.403-.353-.934-.529-1.593-.529h-3.336v8.466Zm-5.886.046c.867,0,2.028-.038,3.485-.115v-.736h-3.266c-.315,0-.564-.069-.748-.207-.184-.138-.276-.403-.276-.794v-1.99l3.784-.058v-.701l-3.784-.058V1.8764c0-.675.326-1.013.978-1.013h3.312V.1274l-.678-.023c-.683-.03-1.638-.057-2.865-.08-.467,0-.862.134-1.184.402-.322.269-.483.702-.483,1.3v5.165c0,.644.166,1.08.5,1.306.333.226.742.339,1.225.339" style="fill: #fff;"></path><path d="m70.7406-.0003c.973,0,1.741.672,1.741,1.741,0,.699-.644,1.673-1.672,1.673h-8.171c-1.645,0-2.797,1.316-2.797,2.522,0,1.618,1.467,2.66,2.797,2.66,1.439,0,4.127.01,4.483,0,3.153-.096,6.429,2.412,6.429,6.059,0,3.318-2.92,6.005-6.155,6.005h-9.199c-.576,0-1.618-.48-1.618-1.728,0-1.316,1.221-1.672,1.618-1.672h9.007c.919,0,2.838-.658,2.838-2.605,0-1.549-1.303-2.605-2.728-2.605h-4.332c-4.003,0-6.594-2.7-6.594-6.114C56.3876,2.7137,59.0876-.0003,62.6386-.0003h8.102Z" style="fill: #fff;"></path><ellipse cx="10.3927" cy="10.4025" rx="8.659" ry="8.624" style="fill: none; stroke: #fff; stroke-width: 3.468px;"></ellipse><path d="m18.9891,10.9348c-.981,0-1.776.795-1.776,1.776v6.247c0,.981.795,1.776,1.776,1.776s1.776-.795,1.776-1.776v-8.023h-1.776Z" style="fill: #fff;"></path><path d="m25.9559,18.9912v-10.874c0-1.288.979-6.338,6.407-6.338,5.669,0,6.562,5.376,6.562,6.149v11.063-10.822c0-.911.67-6.39,6.425-6.39,4.982,0,6.51,4.191,6.51,6.424v10.788" style="fill: none; stroke: #fff; stroke-linecap: round; stroke-linejoin: round; stroke-width: 3.468px;"></path></g></svg>